<svg width="16" height="15" viewBox="0 0 16 15" fill="none" xmlns="http://www.w3.org/2000/svg">
<g clip-path="url(#clip0_244_666)">
<path d="M14.3332 2.83331H12.8888V3.61109H14.2221V12.1666H1.77767V3.61109H3.11101V2.83331H1.66656C1.56267 2.83483 1.46013 2.85425 1.36482 2.89044C1.2695 2.92664 1.18326 2.97892 1.11104 3.04428C1.03881 3.10965 0.982007 3.18682 0.943873 3.2714C0.905739 3.35597 0.88702 3.44629 0.888786 3.5372V12.2405C0.88702 12.3314 0.905739 12.4218 0.943873 12.5063C0.982007 12.5909 1.03881 12.6681 1.11104 12.7335C1.18326 12.7988 1.2695 12.8511 1.36482 12.8873C1.46013 12.9235 1.56267 12.9429 1.66656 12.9444H14.3332C14.4371 12.9429 14.5397 12.9235 14.635 12.8873C14.7303 12.8511 14.8165 12.7988 14.8888 12.7335C14.961 12.6681 15.0178 12.5909 15.0559 12.5063C15.0941 12.4218 15.1128 12.3314 15.111 12.2405V3.5372C15.1128 3.44629 15.0941 3.35597 15.0559 3.2714C15.0178 3.18682 14.961 3.10965 14.8888 3.04428C14.8165 2.97892 14.7303 2.92664 14.635 2.89044C14.5397 2.85425 14.4371 2.83483 14.3332 2.83331Z" fill="#151515"/>
<path d="M3.55566 5.94446H4.44455V6.72224H3.55566V5.94446Z" fill="#151515"/>
<path d="M6.22217 5.94446H7.11106V6.72224H6.22217V5.94446Z" fill="#151515"/>
<path d="M8.88892 5.94446H9.7778V6.72224H8.88892V5.94446Z" fill="#151515"/>
<path d="M11.5557 5.94446H12.4446V6.72224H11.5557V5.94446Z" fill="#151515"/>
<path d="M3.55566 7.88892H4.44455V8.66669H3.55566V7.88892Z" fill="#151515"/>
<path d="M6.22217 7.88892H7.11106V8.66669H6.22217V7.88892Z" fill="#151515"/>
<path d="M8.88892 7.88892H9.7778V8.66669H8.88892V7.88892Z" fill="#151515"/>
<path d="M11.5557 7.88892H12.4446V8.66669H11.5557V7.88892Z" fill="#151515"/>
<path d="M3.55566 9.83331H4.44455V10.6111H3.55566V9.83331Z" fill="#151515"/>
<path d="M6.22217 9.83331H7.11106V10.6111H6.22217V9.83331Z" fill="#151515"/>
<path d="M8.88892 9.83331H9.7778V10.6111H8.88892V9.83331Z" fill="#151515"/>
<path d="M11.5557 9.83331H12.4446V10.6111H11.5557V9.83331Z" fill="#151515"/>
<path d="M4.44444 4.38888C4.56232 4.38888 4.67536 4.34791 4.75871 4.27498C4.84206 4.20205 4.88889 4.10313 4.88889 3.99999V1.66666C4.88889 1.56352 4.84206 1.4646 4.75871 1.39167C4.67536 1.31874 4.56232 1.27777 4.44444 1.27777C4.32657 1.27777 4.21352 1.31874 4.13017 1.39167C4.04683 1.4646 4 1.56352 4 1.66666V3.99999C4 4.10313 4.04683 4.20205 4.13017 4.27498C4.21352 4.34791 4.32657 4.38888 4.44444 4.38888Z" fill="#151515"/>
<path d="M11.5555 4.38888C11.6734 4.38888 11.7864 4.34791 11.8698 4.27498C11.9531 4.20205 12 4.10313 12 3.99999V1.66666C12 1.56352 11.9531 1.4646 11.8698 1.39167C11.7864 1.31874 11.6734 1.27777 11.5555 1.27777C11.4377 1.27777 11.3246 1.31874 11.2413 1.39167C11.1579 1.4646 11.1111 1.56352 11.1111 1.66666V3.99999C11.1111 4.10313 11.1579 4.20205 11.2413 4.27498C11.3246 4.34791 11.4377 4.38888 11.5555 4.38888Z" fill="#151515"/>
<path d="M5.77783 2.83331H10.2223V3.61109H5.77783V2.83331Z" fill="#151515"/>
</g>
<defs>
<clipPath id="clip0_244_666">
<rect width="16" height="14" fill="white" transform="translate(0 0.5)"/>
</clipPath>
</defs>
</svg>
