<svg width="32" height="32" viewBox="0 0 32 32" fill="none" xmlns="http://www.w3.org/2000/svg">
<path d="M7.7999 13.034L17.7919 14.38L19.0159 24.076L26.4099 5.59L7.7999 13.034ZM3.7679 14.508C3.54864 14.479 3.34517 14.3782 3.18933 14.2212C3.03349 14.0643 2.93408 13.8601 2.90665 13.6407C2.87922 13.4212 2.92531 13.1988 3.03772 13.0084C3.15013 12.8179 3.32252 12.6701 3.5279 12.588L27.8339 2.868C28.0156 2.79526 28.2147 2.77745 28.4065 2.81679C28.5982 2.85612 28.7742 2.95087 28.9126 3.08928C29.051 3.22769 29.1458 3.40369 29.1851 3.59544C29.2244 3.78719 29.2066 3.98627 29.1339 4.168L19.4359 28.408C19.3536 28.6135 19.2054 28.7858 19.0146 28.898C18.8238 29.0102 18.6012 29.0559 18.3816 29.028C18.162 29.0001 17.9579 28.9001 17.8013 28.7438C17.6446 28.5874 17.5442 28.3835 17.5159 28.164L15.9999 16.156L3.7679 14.508V14.508Z" fill="#545454"/>
</svg>
