<svg width="16" height="16" viewBox="0 0 31 32" fill="none" xmlns="http://www.w3.org/2000/svg">
<path d="M24.1328 3.42847C25.0498 3.42847 25.9292 3.81979 26.5776 4.51636C27.226 5.21292 27.5903 6.15766 27.5903 7.14275V24.857C27.5903 25.8421 27.226 26.7869 26.5776 27.4834C25.9292 28.18 25.0498 28.5713 24.1328 28.5713H7.64348C6.72651 28.5713 5.84709 28.18 5.1987 27.4834C4.5503 26.7869 4.18604 25.8421 4.18604 24.857V7.14275C4.18604 6.15766 4.5503 5.21292 5.1987 4.51636C5.84709 3.81979 6.72651 3.42847 7.64348 3.42847H24.1328ZM24.1328 5.14275H7.64348C7.14973 5.14275 6.6762 5.35347 6.32706 5.72854C5.97792 6.10361 5.78178 6.61232 5.78178 7.14275V24.857C5.78178 25.961 6.61582 26.857 7.64348 26.857H24.1328C24.6266 26.857 25.1001 26.6463 25.4493 26.2712C25.7984 25.8962 25.9945 25.3875 25.9945 24.857V7.14275C25.9945 6.61232 25.7984 6.10361 25.4493 5.72854C25.1001 5.35347 24.6266 5.14275 24.1328 5.14275ZM21.2073 13.7142C21.4895 13.7142 21.76 13.8346 21.9596 14.0489C22.1591 14.2632 22.2711 14.5539 22.2711 14.857V21.7142C22.2711 22.0173 22.1591 22.308 21.9596 22.5223C21.76 22.7366 21.4895 22.857 21.2073 22.857H10.569C10.2869 22.857 10.0163 22.7366 9.81677 22.5223C9.61727 22.308 9.50518 22.0173 9.50518 21.7142V14.857C9.50518 14.5539 9.61727 14.2632 9.81677 14.0489C10.0163 13.8346 10.2869 13.7142 10.569 13.7142H21.2073ZM20.6754 15.4285H11.1009V21.1428H20.6754V15.4285ZM21.2073 9.14275C21.4095 9.14282 21.6041 9.22532 21.7518 9.37358C21.8995 9.52184 21.9893 9.72481 22.0031 9.94147C22.0169 10.1581 21.9536 10.3723 21.826 10.5408C21.6984 10.7093 21.5161 10.8194 21.3158 10.849L21.2073 10.857H10.569C10.3669 10.857 10.1723 10.7745 10.0246 10.6262C9.87684 10.478 9.78702 10.275 9.77324 10.0583C9.75946 9.84165 9.82275 9.62745 9.95032 9.45898C10.0779 9.29052 10.2602 9.18035 10.4605 9.15075L10.569 9.14275H21.2073Z" fill="#545454"/>
</svg>
