<svg width="25" height="25" viewBox="0 0 29 31" fill="none" xmlns="http://www.w3.org/2000/svg">
<path d="M26.7102 1.93745C26.2884 1.48099 25.7875 1.1189 25.2364 0.871866C24.6852 0.624829 24.0944 0.497681 23.4978 0.497681C22.9012 0.497681 22.3104 0.624829 21.7592 0.871866C21.208 1.1189 20.7072 1.48099 20.2853 1.93745L3.20125 20.4212C2.6929 20.9712 2.32319 21.6537 2.13025 22.4037L0.342928 29.3099C0.301632 29.47 0.300418 29.6391 0.339411 29.7999C0.378403 29.9607 0.4562 30.1073 0.56483 30.2249C0.673459 30.3424 0.809016 30.4266 0.957611 30.4688C1.10621 30.5109 1.2625 30.5096 1.41047 30.4649L7.79259 28.5312C8.48573 28.3214 9.1172 27.9219 9.62613 27.3712L26.7102 8.88745C27.5619 7.96574 28.0404 6.71577 28.0404 5.41245C28.0404 4.10912 27.5619 2.85915 26.7102 1.93745ZM21.5112 3.26245C22.0382 2.6924 22.753 2.37221 23.4982 2.37233C24.2434 2.37245 24.9581 2.69286 25.485 3.26307C26.0119 3.83329 26.3078 4.6066 26.3077 5.41289C26.3076 6.21918 26.0114 6.9924 25.4844 7.56245L23.7052 9.4862L19.7319 5.1862L21.5112 3.26245ZM18.5073 6.51245L22.4817 10.8124L8.4003 26.0462C8.10206 26.3689 7.73202 26.6031 7.32583 26.7262L2.42601 28.2099L3.79741 22.9099C3.91137 22.4706 4.1278 22.0703 4.42592 21.7474L18.5073 6.51245Z" fill="#545454"/>
</svg>
