<svg width="25" height="20" viewBox="0 0 25 20" fill="none" xmlns="http://www.w3.org/2000/svg">
<path d="M23.2143 0H1.78571C1.31211 0 0.85791 0.210714 0.523023 0.585786C0.188137 0.960859 0 1.46957 0 2V18C0 18.5304 0.188137 19.0391 0.523023 19.4142C0.85791 19.7893 1.31211 20 1.78571 20H23.2143C23.6879 20 24.1421 19.7893 24.477 19.4142C24.8119 19.0391 25 18.5304 25 18V2C25 1.46957 24.8119 0.960859 24.477 0.585786C24.1421 0.210714 23.6879 0 23.2143 0ZM21.25 2L12.5 8.78L3.75 2H21.25ZM1.78571 18V2.91L11.9911 10.82C12.1405 10.9361 12.3181 10.9984 12.5 10.9984C12.6819 10.9984 12.8595 10.9361 13.0089 10.82L23.2143 2.91V18H1.78571Z" fill="#545454"/>
</svg>
