<svg width="16" height="17" viewBox="0 0 16 17" fill="none" xmlns="http://www.w3.org/2000/svg">
<path fill-rule="evenodd" clip-rule="evenodd" d="M14.8572 10.4048V5.73812L10.5034 2.40479H6.1497C5.68783 2.40479 5.24487 2.54526 4.91828 2.79531C4.59168 3.04536 4.4082 3.3845 4.4082 3.73812V10.4048C4.4082 10.7584 4.59168 11.0975 4.91828 11.3476C5.24487 11.5976 5.68783 11.7381 6.1497 11.7381H13.1157C13.5776 11.7381 14.0205 11.5976 14.3471 11.3476C14.6737 11.0975 14.8572 10.7584 14.8572 10.4048Z" stroke="black" stroke-linecap="round" stroke-linejoin="round"/>
<path d="M9.63273 5.07143V7.7381H12.245M4.40824 3.7381C3.94637 3.7381 3.50341 3.87857 3.17682 4.12862C2.85023 4.37867 2.66675 4.71781 2.66675 5.07143V11.7381C2.66675 12.0917 2.85023 12.4309 3.17682 12.6809C3.50341 12.931 3.94637 13.0714 4.40824 13.0714H11.3742C11.8361 13.0714 12.2791 12.931 12.6057 12.6809C12.9322 12.4309 13.1157 12.0917 13.1157 11.7381" stroke="black" stroke-linecap="round" stroke-linejoin="round"/>
</svg>
