<svg width="14" height="13" viewBox="0 0 14 13" fill="none" xmlns="http://www.w3.org/2000/svg">
<path d="M11.3333 12.3909H2C1.82319 12.3909 1.65362 12.3206 1.5286 12.1956C1.40357 12.0706 1.33333 11.901 1.33333 11.7242V6.39086H0L6.19467 0.195524C6.25658 0.13354 6.33011 0.0843673 6.41104 0.0508178C6.49197 0.0172683 6.57872 0 6.66633 0C6.75394 0 6.8407 0.0172683 6.92163 0.0508178C7.00256 0.0843673 7.07608 0.13354 7.138 0.195524L13.3333 6.39086H12V11.7242C12 11.901 11.9298 12.0706 11.8047 12.1956C11.6797 12.3206 11.5101 12.3909 11.3333 12.3909ZM5.33333 7.72419H8V11.0575H10.6667V5.60952L6.66667 1.60952L2.66667 5.60952V11.0575H5.33333V7.72419Z" fill="#545454"/>
</svg>
