<svg width="16" height="16" viewBox="0 0 31 32" fill="none" xmlns="http://www.w3.org/2000/svg">
<path d="M15.3432 5C16.3017 5 17.2256 5.13021 18.115 5.39062C19.0044 5.65104 19.8344 6.02083 20.6052 6.5C21.376 6.97917 22.0825 7.55208 22.7248 8.21875C23.3671 8.88542 23.9106 9.625 24.3553 10.4375C24.8 11.25 25.1508 12.1302 25.4077 13.0781C25.6647 14.026 25.7882 15 25.7783 16C25.7783 17.0104 25.6548 17.9844 25.4077 18.9219C25.1607 19.8594 24.8099 20.7344 24.3553 21.5469C23.9008 22.3594 23.3573 23.1042 22.7248 23.7812C22.0924 24.4583 21.3908 25.0312 20.62 25.5C19.8492 25.9688 19.0142 26.3385 18.115 26.6094C17.2158 26.8802 16.2918 27.0104 15.3432 27C14.3846 27 13.4607 26.8698 12.5713 26.6094C11.682 26.349 10.8519 25.9792 10.0811 25.5C9.31035 25.0208 8.6038 24.4479 7.96149 23.7812C7.31917 23.1146 6.77568 22.375 6.331 21.5625C5.88632 20.75 5.53552 19.8698 5.27859 18.9219C5.02167 17.974 4.89814 17 4.90802 16C4.90802 14.9896 5.03155 14.0156 5.27859 13.0781C5.52563 12.1406 5.87644 11.2656 6.331 10.4531C6.78556 9.64062 7.32906 8.89583 7.96149 8.21875C8.59392 7.54167 9.29553 6.96875 10.0663 6.5C10.8371 6.03125 11.6721 5.66146 12.5713 5.39062C13.4706 5.11979 14.3945 4.98958 15.3432 5ZM15.3432 25C16.5191 25 17.6258 24.7656 18.6634 24.2969C19.701 23.8281 20.6052 23.1823 21.376 22.3594C22.1467 21.5365 22.7545 20.5833 23.1992 19.5C23.6438 18.4167 23.8711 17.25 23.881 16C23.881 14.7604 23.6587 13.5938 23.214 12.5C22.7693 11.4062 22.1566 10.4531 21.376 9.64062C20.5953 8.82812 19.6911 8.1875 18.6634 7.71875C17.6357 7.25 16.529 7.01042 15.3432 7C14.1672 7 13.0605 7.23438 12.0229 7.70312C10.9853 8.17188 10.0811 8.81771 9.31035 9.64062C8.53957 10.4635 7.93184 11.4167 7.48716 12.5C7.04248 13.5833 6.8152 14.75 6.80532 16C6.80532 17.2396 7.02766 18.4062 7.47234 19.5C7.91702 20.5938 8.52969 21.5469 9.31035 22.3594C10.091 23.1719 10.9952 23.8125 12.0229 24.2812C13.0506 24.75 14.1573 24.9896 15.3432 25ZM15.3432 16H19.1378V18H13.4459V10H15.3432V16ZM24.7407 6.09375C23.4758 4.77083 22.038 3.76042 20.4273 3.0625C18.8166 2.36458 17.1219 2.01042 15.3432 2C13.5644 2 11.8697 2.34896 10.259 3.04688C8.64827 3.74479 7.21047 4.76042 5.94561 6.09375L4.61157 4.6875C5.32306 3.9375 6.09384 3.27083 6.9239 2.6875C7.75397 2.10417 8.62357 1.61458 9.53269 1.21875C10.4418 0.822917 11.3855 0.520833 12.3638 0.3125C13.3421 0.104167 14.3352 0 15.3432 0C16.3511 0 17.3393 0.0989583 18.3077 0.296875C19.2761 0.494792 20.2198 0.796875 21.1388 1.20312C22.0578 1.60938 22.9323 2.10417 23.7624 2.6875C24.5925 3.27083 25.3633 3.9375 26.0747 4.6875L24.7407 6.09375ZM5.94561 25.9062C7.21047 27.2292 8.64827 28.2396 10.259 28.9375C11.8697 29.6354 13.5644 29.9896 15.3432 30C17.1219 30 18.8166 29.651 20.4273 28.9531C22.038 28.2552 23.4758 27.2396 24.7407 25.9062L26.0747 27.3125C25.3633 28.0625 24.5925 28.7292 23.7624 29.3125C22.9323 29.8958 22.0628 30.3854 21.1536 30.7812C20.2445 31.1771 19.3008 31.4792 18.3225 31.6875C17.3442 31.8958 16.3511 32 15.3432 32C14.3352 32 13.347 31.901 12.3786 31.7031C11.4102 31.5052 10.4665 31.2031 9.54751 30.7969C8.62851 30.3906 7.75397 29.8958 6.9239 29.3125C6.09384 28.7292 5.32306 28.0625 4.61157 27.3125L5.94561 25.9062Z" fill="#545454"/>
</svg>
