<svg width="43" height="36" viewBox="0 0 43 36" fill="none" xmlns="http://www.w3.org/2000/svg">
<path d="M29.4229 25.7147C29.5581 25.5797 29.6653 25.4195 29.7385 25.2431C29.8117 25.0667 29.8494 24.8775 29.8494 24.6865C29.8494 24.4955 29.8117 24.3064 29.7385 24.13C29.6653 23.9536 29.5581 23.7933 29.4229 23.6584L23.7646 18.0001L29.4229 12.3417C29.6956 12.0691 29.8487 11.6992 29.8487 11.3136C29.8487 10.928 29.6956 10.5582 29.4229 10.2855C29.1502 10.0128 28.7804 9.85963 28.3948 9.85963C28.0091 9.85963 27.6393 10.0128 27.3666 10.2855L20.6729 16.9792C20.5377 17.1142 20.4304 17.2744 20.3573 17.4508C20.2841 17.6273 20.2464 17.8164 20.2464 18.0074C20.2464 18.1984 20.2841 18.3875 20.3573 18.5639C20.4304 18.7403 20.5377 18.9006 20.6729 19.0355L27.3666 25.7292C27.9208 26.2834 28.8541 26.2834 29.4229 25.7147Z" fill="#545454"/>
<path d="M21.4229 25.7147C21.5581 25.5797 21.6653 25.4195 21.7385 25.2431C21.8117 25.0667 21.8494 24.8775 21.8494 24.6865C21.8494 24.4955 21.8117 24.3064 21.7385 24.13C21.6653 23.9536 21.5581 23.7933 21.4229 23.6584L15.7646 18.0001L21.4229 12.3417C21.6956 12.0691 21.8487 11.6992 21.8487 11.3136C21.8487 10.928 21.6956 10.5582 21.4229 10.2855C21.1502 10.0128 20.7804 9.85963 20.3948 9.85963C20.0091 9.85963 19.6393 10.0128 19.3666 10.2855L12.6729 16.9792C12.5377 17.1142 12.4304 17.2744 12.3573 17.4508C12.2841 17.6273 12.2464 17.8164 12.2464 18.0074C12.2464 18.1984 12.2841 18.3875 12.3573 18.5639C12.4304 18.7403 12.5377 18.9006 12.6729 19.0355L19.3666 25.7292C19.9208 26.2834 20.8541 26.2834 21.4229 25.7147Z" fill="#545454"/>
</svg>
