<svg width="18" height="18" viewBox="0 0 32 32" fill="none" xmlns="http://www.w3.org/2000/svg">
<path d="M16 4.40601L15.219 5.37501L11.219 10.375L11 10.656V16.937L5.46899 20.407L6.53099 22.094L6.99999 21.812V27H15V23C15 22.434 15.434 22 16 22C16.566 22 17 22.434 17 23V27H25V21.812L25.469 22.094L26.531 20.406L21 16.938V10.656L20.781 10.375L16.781 5.37501L16 4.40601ZM16 7.59401L19 11.344V15.688L16.531 14.156L16 13.812L15.469 14.156L13 15.687V11.344L16 7.59401ZM16 11C15.45 11 15 11.45 15 12C15 12.55 15.45 13 16 13C16.55 13 17 12.55 17 12C17 11.45 16.55 11 16 11ZM16 16.188L23 20.563V25H19V23C19 21.355 17.645 20 16 20C14.355 20 13 21.355 13 23V25H8.99999V20.562L16 16.188Z" fill="#545454"/>
</svg>
