<svg width="16" height="14" viewBox="0 0 25 25" fill="black" xmlns="http://www.w3.org/2000/svg">
<path d="M0.980794 20.402C1.60792 18.9987 2.51798 17.7239 3.6603 16.6489C4.79914 15.5707 6.14821 14.7111 7.63301 14.1175C7.64631 14.1112 7.65961 14.108 7.6729 14.1018C5.60177 12.6884 4.25537 10.3863 4.25537 7.78894C4.25537 3.48618 7.94551 0 12.5 0C17.0545 0 20.7446 3.48618 20.7446 7.78894C20.7446 10.3863 19.3982 12.6884 17.3271 14.1049C17.3404 14.1112 17.3537 14.1143 17.367 14.1206C18.8563 14.7142 20.1928 15.5653 21.3397 16.652C22.481 17.7279 23.3909 19.0024 24.0192 20.4052C24.6365 21.7784 24.9694 23.2508 24.9999 24.7425C25.0008 24.776 24.9946 24.8093 24.9816 24.8405C24.9686 24.8718 24.9492 24.9002 24.9244 24.9242C24.8996 24.9482 24.87 24.9673 24.8373 24.9803C24.8046 24.9933 24.7695 25 24.734 25H22.7393C22.593 25 22.4767 24.8901 22.4733 24.755C22.4068 22.3304 21.3763 20.0597 19.5545 18.3386C17.6695 16.5578 15.1662 15.5779 12.5 15.5779C9.83379 15.5779 7.33049 16.5578 5.44552 18.3386C3.62373 20.0597 2.59315 22.3304 2.52666 24.755C2.52334 24.8932 2.40698 25 2.26071 25H0.266038C0.230546 25 0.195409 24.9933 0.162701 24.9803C0.129993 24.9673 0.100374 24.9482 0.0755884 24.9242C0.0508032 24.9002 0.0313543 24.8718 0.0183866 24.8405C0.00541892 24.8093 -0.000805041 24.776 8.22702e-05 24.7425C0.0333267 23.2412 0.362447 21.7808 0.980794 20.402V20.402ZM12.5 13.191C14.0259 13.191 15.4621 12.6288 16.5425 11.608C17.623 10.5873 18.218 9.23053 18.218 7.78894C18.218 6.34736 17.623 4.99058 16.5425 3.96985C15.4621 2.94912 14.0259 2.38693 12.5 2.38693C10.9741 2.38693 9.53792 2.94912 8.45747 3.96985C7.37703 4.99058 6.78195 6.34736 6.78195 7.78894C6.78195 9.23053 7.37703 10.5873 8.45747 11.608C9.53792 12.6288 10.9741 13.191 12.5 13.191Z" fill="#545454"/>
</svg>
