<svg width="44" height="36" viewBox="0 0 44 36" fill="none" xmlns="http://www.w3.org/2000/svg">
<path d="M13.8598 10.2853C13.7246 10.4203 13.6174 10.5805 13.5442 10.7569C13.471 10.9333 13.4333 11.1225 13.4333 11.3135C13.4333 11.5045 13.471 11.6936 13.5442 11.87C13.6174 12.0464 13.7246 12.2067 13.8598 12.3416L19.5182 17.9999L13.8598 23.6583C13.5872 23.9309 13.434 24.3008 13.434 24.6864C13.434 25.072 13.5872 25.4418 13.8598 25.7145C14.1325 25.9872 14.5023 26.1404 14.888 26.1404C15.2736 26.1404 15.6434 25.9872 15.9161 25.7145L22.6098 19.0208C22.745 18.8858 22.8523 18.7256 22.9255 18.5492C22.9986 18.3727 23.0363 18.1836 23.0363 17.9926C23.0363 17.8016 22.9986 17.6125 22.9255 17.4361C22.8523 17.2597 22.745 17.0994 22.6098 16.9645L15.9161 10.2708C15.3619 9.71659 14.4286 9.71659 13.8598 10.2853Z" fill="#545454"/>
<path d="M21.8598 10.2853C21.7246 10.4203 21.6174 10.5805 21.5442 10.7569C21.471 10.9333 21.4333 11.1225 21.4333 11.3135C21.4333 11.5045 21.471 11.6936 21.5442 11.87C21.6174 12.0464 21.7246 12.2067 21.8598 12.3416L27.5182 17.9999L21.8598 23.6583C21.5872 23.9309 21.434 24.3008 21.434 24.6864C21.434 25.072 21.5872 25.4418 21.8598 25.7145C22.1325 25.9872 22.5023 26.1404 22.888 26.1404C23.2736 26.1404 23.6434 25.9872 23.9161 25.7145L30.6098 19.0208C30.745 18.8858 30.8523 18.7256 30.9255 18.5492C30.9986 18.3727 31.0363 18.1836 31.0363 17.9926C31.0363 17.8016 30.9986 17.6125 30.9255 17.4361C30.8523 17.2597 30.745 17.0994 30.6098 16.9645L23.9161 10.2708C23.3619 9.71659 22.4286 9.71659 21.8598 10.2853Z" fill="#545454"/>
</svg>
