<svg width="16" height="15" viewBox="0 0 16 15" fill="none" xmlns="http://www.w3.org/2000/svg">
<g clip-path="url(#clip0_244_635)">
<path d="M8.00008 2.25C8.17 2.25016 8.33344 2.3071 8.45699 2.40916C8.58055 2.51123 8.6549 2.65072 8.66486 2.79915C8.67482 2.94757 8.61963 3.09372 8.51057 3.20774C8.40151 3.32175 8.24681 3.39502 8.07808 3.41258L8.00008 3.41667H4.66675C4.50346 3.41669 4.34586 3.46914 4.22383 3.56408C4.10181 3.65903 4.02385 3.78985 4.00475 3.93175L4.00008 4V11C4.0001 11.1429 4.06005 11.2808 4.16856 11.3875C4.27706 11.4943 4.42658 11.5625 4.58875 11.5792L4.66675 11.5833H7.66675C7.83667 11.5835 8.0001 11.6404 8.12366 11.7425C8.24722 11.8446 8.32157 11.9841 8.33153 12.1325C8.34149 12.2809 8.2863 12.4271 8.17724 12.5411C8.06818 12.6551 7.91348 12.7284 7.74475 12.7459L7.66675 12.75H4.66675C4.15661 12.75 3.66574 12.5795 3.29457 12.2733C2.92341 11.967 2.70001 11.5483 2.67008 11.1027L2.66675 11V4C2.66672 3.55363 2.86163 3.12412 3.2116 2.79935C3.56158 2.47458 4.04015 2.2791 4.54941 2.25292L4.66675 2.25H8.00008ZM11.8047 5.43733L13.6901 7.08758C13.8151 7.19697 13.8853 7.34532 13.8853 7.5C13.8853 7.65468 13.8151 7.80303 13.6901 7.91242L11.8047 9.56267C11.6797 9.67205 11.51 9.73346 11.3332 9.73341C11.1563 9.73336 10.9868 9.67183 10.8617 9.56237C10.7367 9.45292 10.6666 9.30449 10.6666 9.14975C10.6667 8.99501 10.737 8.84663 10.8621 8.73725L11.6094 8.08333H8.00008C7.82327 8.08333 7.6537 8.02187 7.52868 7.91248C7.40365 7.80308 7.33342 7.65471 7.33342 7.5C7.33342 7.34529 7.40365 7.19692 7.52868 7.08752C7.6537 6.97812 7.82327 6.91667 8.00008 6.91667H11.6094L10.8621 6.26275C10.737 6.15337 10.6667 6.00499 10.6666 5.85025C10.6666 5.69551 10.7367 5.54708 10.8617 5.43763C10.9868 5.32817 11.1563 5.26664 11.3332 5.26659C11.51 5.26654 11.6797 5.32795 11.8047 5.43733Z" fill="#545454"/>
</g>
<defs>
<clipPath id="clip0_244_635">
<rect width="16" height="14" fill="white" transform="translate(0 0.5)"/>
</clipPath>
</defs>
</svg>
