<svg width="16" height="15" viewBox="0 0 32 32" fill="none" xmlns="http://www.w3.org/2000/svg">
<path fill-rule="evenodd" clip-rule="evenodd" d="M10.0716 15.375L10.0125 12.3644C9.93912 8.63388 11.4644 5.6875 15 5.6875L16.743 5.68925C20.5615 5.76275 21.9109 8.6385 21.9842 12.3701L22.0434 15.375H22.9991C23.5511 15.375 24 15.8232 24 16.3762V26.9988C24 27.5525 23.5519 28 22.9991 28H9.00088C8.44888 28 8 27.5518 8 26.9988V16.3762C8 15.8225 8.44813 15.375 9.00088 15.375H10.0716ZM12.1204 15.375H19.9525C19.9566 14.6909 19.9655 13.8056 19.9463 12.8337L19.9365 12.3308C19.8848 9.70388 19.6036 7.996 16.7873 7.942L15.2366 7.89725C11.7211 7.82725 12.0394 11.2553 12.062 12.4038L12.072 12.9067L12.1204 15.375ZM22 17.9145C22 17.6165 21.8066 17.375 21.5675 17.375H10.4325C10.1936 17.375 10 17.617 10 17.9145V25.4605C10 25.7585 10.1934 26 10.4325 26H21.5675C21.8064 26 22 25.758 22 25.4605V17.9145Z" fill="#545454"/>
</svg>
