<svg width="16" height="16" viewBox="0 0 32 32" fill="none" xmlns="http://www.w3.org/2000/svg">
<path d="M16.0001 20.0001L21.3334 14.6667H10.6667L16.0001 20.0001ZM16.0001 29.3334C14.1556 29.3334 12.4223 28.9832 10.8001 28.2827C9.17786 27.5832 7.76675 26.6334 6.56675 25.4334C5.36675 24.2334 4.41697 22.8223 3.71741 21.2001C3.01697 19.5779 2.66675 17.8445 2.66675 16.0001C2.66675 14.1556 3.01697 12.4223 3.71741 10.8001C4.41697 9.17786 5.36675 7.76675 6.56675 6.56675C7.76675 5.36675 9.17786 4.41653 10.8001 3.71608C12.4223 3.01653 14.1556 2.66675 16.0001 2.66675C17.8445 2.66675 19.5779 3.01653 21.2001 3.71608C22.8223 4.41653 24.2334 5.36675 25.4334 6.56675C26.6334 7.76675 27.5832 9.17786 28.2827 10.8001C28.9832 12.4223 29.3334 14.1556 29.3334 16.0001C29.3334 17.8445 28.9832 19.5779 28.2827 21.2001C27.5832 22.8223 26.6334 24.2334 25.4334 25.4334C24.2334 26.6334 22.8223 27.5832 21.2001 28.2827C19.5779 28.9832 17.8445 29.3334 16.0001 29.3334ZM16.0001 26.6667C18.9779 26.6667 21.5001 25.6334 23.5667 23.5667C25.6334 21.5001 26.6667 18.9779 26.6667 16.0001C26.6667 13.0223 25.6334 10.5001 23.5667 8.43341C21.5001 6.36675 18.9779 5.33341 16.0001 5.33341C13.0223 5.33341 10.5001 6.36675 8.43341 8.43341C6.36675 10.5001 5.33341 13.0223 5.33341 16.0001C5.33341 18.9779 6.36675 21.5001 8.43341 23.5667C10.5001 25.6334 13.0223 26.6667 16.0001 26.6667Z" fill="#545454"/>
</svg>
