<svg width="16" height="14" viewBox="0 0 16 14" fill="none" xmlns="http://www.w3.org/2000/svg">
<path d="M10.5985 8.78281C10.9766 8.60508 11.4094 8.50391 11.8704 8.50391H11.8719C11.9188 8.50391 11.9407 8.45469 11.9063 8.42734C11.4269 8.05093 10.8794 7.74691 10.286 7.52773C10.2797 7.525 10.2735 7.52363 10.2672 7.5209C11.2375 6.9043 11.8688 5.90215 11.8688 4.77148C11.8688 2.89844 10.1375 1.38086 8.0016 1.38086C5.86566 1.38086 4.13598 2.89844 4.13598 4.77148C4.13598 5.90215 4.76723 6.9043 5.7391 7.5209C5.73285 7.52363 5.7266 7.525 5.72035 7.52773C5.02191 7.78613 4.39535 8.15664 3.85629 8.62969C3.32034 9.09779 2.89365 9.65271 2.60004 10.2635C2.31115 10.8616 2.15524 11.5024 2.14066 12.1516C2.14025 12.1662 2.14317 12.1807 2.14927 12.1943C2.15536 12.2078 2.1645 12.2202 2.17615 12.2307C2.1878 12.2411 2.20172 12.2494 2.2171 12.2551C2.23247 12.2608 2.24898 12.2637 2.26566 12.2637H3.2016C3.26879 12.2637 3.32504 12.2158 3.3266 12.157C3.35785 11.1016 3.84066 10.1131 4.69535 9.36387C5.57816 8.58867 6.75316 8.16211 8.00316 8.16211C8.8891 8.16211 9.7391 8.37676 10.4719 8.77871C10.4907 8.78906 10.5123 8.79489 10.5346 8.79561C10.5568 8.79633 10.5788 8.79192 10.5985 8.78281ZM8.00316 7.12305C7.28754 7.12305 6.6141 6.87832 6.10629 6.43398C5.85644 6.21593 5.65836 5.95678 5.52348 5.67145C5.38859 5.38612 5.31956 5.08026 5.32035 4.77148C5.32035 4.14395 5.60004 3.55332 6.10629 3.10898C6.61254 2.66465 7.28598 2.41992 8.00316 2.41992C8.72035 2.41992 9.39223 2.66465 9.90004 3.10898C10.1499 3.32704 10.348 3.58619 10.4829 3.87152C10.6177 4.15685 10.6868 4.46271 10.686 4.77148C10.686 5.39902 10.4063 5.98965 9.90004 6.43398C9.39223 6.87832 8.71879 7.12305 8.00316 7.12305ZM13.75 10.377H12.4375V9.22852C12.4375 9.16836 12.3813 9.11914 12.3125 9.11914H11.4375C11.3688 9.11914 11.3125 9.16836 11.3125 9.22852V10.377H10C9.93129 10.377 9.87504 10.4262 9.87504 10.4863V11.252C9.87504 11.3121 9.93129 11.3613 10 11.3613H11.3125V12.5098C11.3125 12.5699 11.3688 12.6191 11.4375 12.6191H12.3125C12.3813 12.6191 12.4375 12.5699 12.4375 12.5098V11.3613H13.75C13.8188 11.3613 13.875 11.3121 13.875 11.252V10.4863C13.875 10.4262 13.8188 10.377 13.75 10.377Z" fill="white"/>
</svg>
