<svg width="12" height="12" viewBox="0 0 12 12" fill="white" xmlns="http://www.w3.org/2000/svg">
<path d="M8.59848 7.78281C8.9766 7.60508 9.40941 7.50391 9.87035 7.50391H9.87191C9.91879 7.50391 9.94066 7.45469 9.90629 7.42734C9.42694 7.05093 8.87936 6.74691 8.28598 6.52773C8.27973 6.525 8.27348 6.52363 8.26723 6.5209C9.23754 5.9043 9.86879 4.90215 9.86879 3.77148C9.86879 1.89844 8.13754 0.380859 6.0016 0.380859C3.86566 0.380859 2.13598 1.89844 2.13598 3.77148C2.13598 4.90215 2.76723 5.9043 3.7391 6.5209C3.73285 6.52363 3.7266 6.525 3.72035 6.52773C3.02191 6.78613 2.39535 7.15664 1.85629 7.62969C1.32034 8.09779 0.893654 8.65271 0.600039 9.26348C0.311153 9.86157 0.155245 10.5024 0.140664 11.1516C0.140247 11.1662 0.143172 11.1807 0.149267 11.1943C0.155362 11.2078 0.164503 11.2202 0.176152 11.2307C0.187801 11.2411 0.201723 11.2494 0.217096 11.2551C0.232469 11.2608 0.248983 11.2637 0.265664 11.2637H1.2016C1.26879 11.2637 1.32504 11.2158 1.3266 11.157C1.35785 10.1016 1.84066 9.11309 2.69535 8.36387C3.57816 7.58867 4.75316 7.16211 6.00316 7.16211C6.8891 7.16211 7.7391 7.37676 8.47191 7.77871C8.49074 7.78906 8.51235 7.79489 8.53457 7.79561C8.55678 7.79633 8.57883 7.79192 8.59848 7.78281ZM6.00316 6.12305C5.28754 6.12305 4.6141 5.87832 4.10629 5.43398C3.85644 5.21593 3.65836 4.95678 3.52348 4.67145C3.38859 4.38612 3.31956 4.08026 3.32035 3.77148C3.32035 3.14395 3.60004 2.55332 4.10629 2.10898C4.61254 1.66465 5.28598 1.41992 6.00316 1.41992C6.72035 1.41992 7.39223 1.66465 7.90004 2.10898C8.14989 2.32704 8.34797 2.58619 8.48285 2.87152C8.61774 3.15685 8.68677 3.46271 8.68598 3.77148C8.68598 4.39902 8.40629 4.98965 7.90004 5.43398C7.39223 5.87832 6.71879 6.12305 6.00316 6.12305ZM11.75 9.37695H10.4375V8.22852C10.4375 8.16836 10.3813 8.11914 10.3125 8.11914H9.43754C9.36879 8.11914 9.31254 8.16836 9.31254 8.22852V9.37695H8.00004C7.93129 9.37695 7.87504 9.42617 7.87504 9.48633V10.252C7.87504 10.3121 7.93129 10.3613 8.00004 10.3613H9.31254V11.5098C9.31254 11.5699 9.36879 11.6191 9.43754 11.6191H10.3125C10.3813 11.6191 10.4375 11.5699 10.4375 11.5098V10.3613H11.75C11.8188 10.3613 11.875 10.3121 11.875 10.252V9.48633C11.875 9.42617 11.8188 9.37695 11.75 9.37695Z" fill="#151515"/>
</svg>
