<svg width="16" height="16" viewBox="0 0 16 15" margin-top="5px"  fill="#545454" xmlns="http://www.w3.org/2000/svg">
<path d="M10.5985 9.28281C10.9766 9.10508 11.4094 9.00391 11.8704 9.00391H11.8719C11.9188 9.00391 11.9407 8.95469 11.9063 8.92734C11.4269 8.55093 10.8794 8.24691 10.286 8.02773C10.2797 8.025 10.2735 8.02363 10.2672 8.0209C11.2375 7.4043 11.8688 6.40215 11.8688 5.27148C11.8688 3.39844 10.1375 1.88086 8.0016 1.88086C5.86566 1.88086 4.13598 3.39844 4.13598 5.27148C4.13598 6.40215 4.76723 7.4043 5.7391 8.0209C5.73285 8.02363 5.7266 8.025 5.72035 8.02773C5.02191 8.28613 4.39535 8.65664 3.85629 9.12969C3.32034 9.59779 2.89365 10.1527 2.60004 10.7635C2.31115 11.3616 2.15524 12.0024 2.14066 12.6516C2.14025 12.6662 2.14317 12.6807 2.14927 12.6943C2.15536 12.7078 2.1645 12.7202 2.17615 12.7307C2.1878 12.7411 2.20172 12.7494 2.2171 12.7551C2.23247 12.7608 2.24898 12.7637 2.26566 12.7637H3.2016C3.26879 12.7637 3.32504 12.7158 3.3266 12.657C3.35785 11.6016 3.84066 10.6131 4.69535 9.86387C5.57816 9.08867 6.75316 8.66211 8.00316 8.66211C8.8891 8.66211 9.7391 8.87676 10.4719 9.27871C10.4907 9.28906 10.5123 9.29489 10.5346 9.29561C10.5568 9.29633 10.5788 9.29192 10.5985 9.28281ZM8.00316 7.62305C7.28754 7.62305 6.6141 7.37832 6.10629 6.93398C5.85644 6.71593 5.65836 6.45678 5.52348 6.17145C5.38859 5.88612 5.31956 5.58026 5.32035 5.27148C5.32035 4.64395 5.60004 4.05332 6.10629 3.60898C6.61254 3.16465 7.28598 2.91992 8.00316 2.91992C8.72035 2.91992 9.39223 3.16465 9.90004 3.60898C10.1499 3.82704 10.348 4.08619 10.4829 4.37152C10.6177 4.65685 10.6868 4.96271 10.686 5.27148C10.686 5.89902 10.4063 6.48965 9.90004 6.93398C9.39223 7.37832 8.71879 7.62305 8.00316 7.62305ZM13.75 10.877H12.4375V9.72852C12.4375 9.66836 12.3813 9.61914 12.3125 9.61914H11.4375C11.3688 9.61914 11.3125 9.66836 11.3125 9.72852V10.877H10C9.93129 10.877 9.87504 10.9262 9.87504 10.9863V11.752C9.87504 11.8121 9.93129 11.8613 10 11.8613H11.3125V13.0098C11.3125 13.0699 11.3688 13.1191 11.4375 13.1191H12.3125C12.3813 13.1191 12.4375 13.0699 12.4375 13.0098V11.8613H13.75C13.8188 11.8613 13.875 11.8121 13.875 11.752V10.9863C13.875 10.9262 13.8188 10.877 13.75 10.877Z" fill="#151515"/>
</svg>
