<svg width="24" height="26" viewBox="0 0 24 26" fill="none" xmlns="http://www.w3.org/2000/svg">
<path d="M1 5.79999H3.4H22.6" stroke="#AF1212" stroke-width="2" stroke-linecap="round" stroke-linejoin="round"/>
<path d="M20.1999 5.8V22.6C20.1999 23.2365 19.947 23.847 19.497 24.2971C19.0469 24.7471 18.4364 25 17.7999 25H5.7999C5.16338 25 4.55293 24.7471 4.10285 24.2971C3.65276 23.847 3.3999 23.2365 3.3999 22.6V5.8M6.9999 5.8V3.4C6.9999 2.76348 7.25276 2.15303 7.70285 1.70294C8.15293 1.25286 8.76338 1 9.3999 1H14.1999C14.8364 1 15.4469 1.25286 15.897 1.70294C16.347 2.15303 16.5999 2.76348 16.5999 3.4V5.8" stroke="#AF1212" stroke-width="2" stroke-linecap="round" stroke-linejoin="round"/>
<path d="M9.3999 11.8V19" stroke="#AF1212" stroke-width="2" stroke-linecap="round" stroke-linejoin="round"/>
<path d="M14.2002 11.8V19" stroke="#AF1212" stroke-width="2" stroke-linecap="round" stroke-linejoin="round"/>
</svg>
