<svg width="24" height="19" viewBox="0 0 24 19" fill="none" xmlns="http://www.w3.org/2000/svg">
<g clip-path="url(#clip0_627_552)">
<path fill-rule="evenodd" clip-rule="evenodd" d="M17 2.375C17.7652 2.37497 18.5015 2.60642 19.0583 3.02202C19.615 3.43761 19.9501 4.00592 19.995 4.61067L20 4.75V8.19375L20.594 7.98475C21.208 7.76863 21.916 8.1035 21.994 8.6165L22 8.70833V15.0417C22.0002 15.4411 21.8096 15.8259 21.4665 16.1188C21.1234 16.4117 20.6532 16.5911 20.15 16.621L20 16.625H4C3.49542 16.6251 3.00943 16.4743 2.63945 16.2026C2.26947 15.931 2.04284 15.5587 2.005 15.1604L2 15.0417V8.70833C2 8.17633 2.675 7.80029 3.297 7.95229L3.407 7.98475L4 8.19375V4.75C3.99996 4.14421 4.29233 3.5613 4.81728 3.12054C5.34224 2.67979 6.06011 2.4145 6.824 2.37896L7 2.375H17ZM20 9.92671L12.812 12.4553C12.5564 12.5452 12.2797 12.5917 12 12.5917C11.7203 12.5917 11.4436 12.5452 11.188 12.4553L4 9.9275V15.0417H20V9.92671ZM17 3.95833H7C6.73478 3.95833 6.48043 4.04174 6.29289 4.19021C6.10536 4.33867 6 4.54004 6 4.75V8.89754L12 11.0089L18 8.89754V4.75C18 4.54004 17.8946 4.33867 17.7071 4.19021C17.5196 4.04174 17.2652 3.95833 17 3.95833ZM12 6.33333C12.2549 6.33356 12.5 6.41082 12.6854 6.54934C12.8707 6.68786 12.9822 6.87717 12.9972 7.0786C13.0121 7.28004 12.9293 7.47838 12.7657 7.63312C12.6021 7.78785 12.3701 7.88729 12.117 7.91113L12 7.91667H10C9.74512 7.91644 9.49997 7.83918 9.31463 7.70066C9.1293 7.56214 9.01776 7.37283 9.00283 7.1714C8.98789 6.96996 9.07067 6.77162 9.23426 6.61688C9.39785 6.46215 9.6299 6.36271 9.883 6.33888L10 6.33333H12Z" fill="#0D6FE2"/>
</g>
<defs>
<clipPath id="clip0_627_552">
<rect width="24" height="19" fill="white"/>
</clipPath>
</defs>
</svg>
