<svg width="25" height="25" viewBox="0 0 25 25" fill="none" xmlns="http://www.w3.org/2000/svg">
<g clip-path="url(#clip0_487_225)">
<path fill-rule="evenodd" clip-rule="evenodd" d="M17.4575 3.5C18.2227 3.49996 18.959 3.79233 19.5158 4.31728C20.0725 4.84224 20.4076 5.56011 20.4525 6.324L20.4575 6.5V10.85L21.0515 10.586C21.6655 10.313 22.3735 10.736 22.4515 11.384L22.4575 11.5V19.5C22.4577 20.0046 22.2671 20.4906 21.924 20.8605C21.5809 21.2305 21.1107 21.4572 20.6075 21.495L20.4575 21.5H4.45752C3.95294 21.5002 3.46695 21.3096 3.09697 20.9665C2.72699 20.6234 2.50036 20.1532 2.46252 19.65L2.45752 19.5V11.5C2.45752 10.828 3.13252 10.353 3.75452 10.545L3.86452 10.586L4.45752 10.85V6.5C4.45748 5.73479 4.74984 4.99849 5.2748 4.44174C5.79976 3.88499 6.51763 3.54989 7.28152 3.505L7.45752 3.5H17.4575ZM20.4575 13.039L13.2695 16.233C13.0139 16.3466 12.7373 16.4053 12.4575 16.4053C12.1778 16.4053 11.9012 16.3466 11.6455 16.233L4.45752 13.04V19.5H20.4575V13.039ZM17.4575 5.5H7.45752C7.1923 5.5 6.93795 5.60536 6.75041 5.79289C6.56288 5.98043 6.45752 6.23478 6.45752 6.5V11.739L12.4575 14.406L18.4575 11.739V6.5C18.4575 6.23478 18.3522 5.98043 18.1646 5.79289C17.9771 5.60536 17.7227 5.5 17.4575 5.5ZM12.4575 8.5C12.7124 8.50028 12.9576 8.59788 13.1429 8.77285C13.3282 8.94782 13.4398 9.18695 13.4547 9.44139C13.4696 9.69584 13.3868 9.94638 13.2233 10.1418C13.0597 10.3373 12.8276 10.4629 12.5745 10.493L12.4575 10.5H10.4575C10.2026 10.4997 9.95749 10.4021 9.77215 10.2272C9.58681 10.0522 9.47528 9.81305 9.46035 9.55861C9.44541 9.30416 9.52819 9.05362 9.69178 8.85817C9.85537 8.66271 10.0874 8.5371 10.3405 8.507L10.4575 8.5H12.4575Z" fill="#0D6FE2"/>
</g>
<defs>
<clipPath id="clip0_487_225">
<rect width="24" height="24" fill="white" transform="translate(0.45752 0.5)"/>
</clipPath>
</defs>
</svg>
