<svg width="24" height="24" viewBox="0 0 24 24" fill="none" xmlns="http://www.w3.org/2000/svg">
<path d="M19.6 10.9H4.2C2.98497 10.9 2 11.885 2 13.1V20.8C2 22.015 2.98497 23 4.2 23H19.6C20.815 23 21.8 22.015 21.8 20.8V13.1C21.8 11.885 20.815 10.9 19.6 10.9Z" stroke="#898989" stroke-width="2" stroke-linecap="round" stroke-linejoin="round"/>
<path d="M6.3999 10.9V6.5C6.3999 5.04131 6.97936 3.64236 8.01082 2.61091C9.04227 1.57946 10.4412 1 11.8999 1C13.3586 1 14.7575 1.57946 15.789 2.61091C16.8204 3.64236 17.3999 5.04131 17.3999 6.5V10.9" stroke="#898989" stroke-width="2" stroke-linecap="round" stroke-linejoin="round"/>
</svg>
